<mxfile host="app.diagrams.net" modified="2023-07-05T10:18:07.100Z" agent="Mozilla/5.0 (Windows NT 10.0; Win64; x64) AppleWebKit/537.36 (KHTML, like Gecko) Chrome/114.0.0.0 Safari/537.36" etag="w_EamSCXfF5rRArm7xZL" version="21.5.2" type="github">
  <diagram name="Halaman-1" id="eVbmSOAtI7tmUl0F6Ql6">
    <mxGraphModel dx="1500" dy="839" grid="0" gridSize="10" guides="1" tooltips="1" connect="1" arrows="1" fold="1" page="1" pageScale="1" pageWidth="827" pageHeight="1169" math="0" shadow="0">
      <root>
        <mxCell id="0" />
        <mxCell id="1" parent="0" />
        <mxCell id="MMtwvZ5KxTtCi9PwFLXj-27" style="rounded=0;orthogonalLoop=1;jettySize=auto;html=1;exitX=1;exitY=0.75;exitDx=0;exitDy=0;entryX=0;entryY=0.5;entryDx=0;entryDy=0;" edge="1" parent="1" source="MMtwvZ5KxTtCi9PwFLXj-1" target="MMtwvZ5KxTtCi9PwFLXj-2">
          <mxGeometry relative="1" as="geometry" />
        </mxCell>
        <mxCell id="MMtwvZ5KxTtCi9PwFLXj-28" style="rounded=0;orthogonalLoop=1;jettySize=auto;html=1;exitX=1;exitY=0.75;exitDx=0;exitDy=0;entryX=0;entryY=0.5;entryDx=0;entryDy=0;" edge="1" parent="1" source="MMtwvZ5KxTtCi9PwFLXj-1" target="MMtwvZ5KxTtCi9PwFLXj-4">
          <mxGeometry relative="1" as="geometry" />
        </mxCell>
        <mxCell id="MMtwvZ5KxTtCi9PwFLXj-29" style="rounded=0;orthogonalLoop=1;jettySize=auto;html=1;exitX=1;exitY=0.75;exitDx=0;exitDy=0;entryX=0;entryY=0.5;entryDx=0;entryDy=0;" edge="1" parent="1" source="MMtwvZ5KxTtCi9PwFLXj-1" target="MMtwvZ5KxTtCi9PwFLXj-3">
          <mxGeometry relative="1" as="geometry" />
        </mxCell>
        <mxCell id="MMtwvZ5KxTtCi9PwFLXj-1" value="" style="shape=actor;whiteSpace=wrap;html=1;" vertex="1" parent="1">
          <mxGeometry x="80" y="130" width="40" height="60" as="geometry" />
        </mxCell>
        <mxCell id="MMtwvZ5KxTtCi9PwFLXj-17" value="&amp;lt;&amp;lt;include&amp;gt;&amp;gt;" style="rounded=0;orthogonalLoop=1;jettySize=auto;html=1;exitX=1;exitY=0.5;exitDx=0;exitDy=0;entryX=0.149;entryY=0.116;entryDx=0;entryDy=0;entryPerimeter=0;dashed=1;dashPattern=8 8;" edge="1" parent="1" source="MMtwvZ5KxTtCi9PwFLXj-2" target="MMtwvZ5KxTtCi9PwFLXj-16">
          <mxGeometry relative="1" as="geometry">
            <mxPoint x="660" y="420" as="targetPoint" />
          </mxGeometry>
        </mxCell>
        <mxCell id="MMtwvZ5KxTtCi9PwFLXj-2" value="Registrasi" style="ellipse;whiteSpace=wrap;html=1;" vertex="1" parent="1">
          <mxGeometry x="310" y="50" width="120" height="60" as="geometry" />
        </mxCell>
        <mxCell id="MMtwvZ5KxTtCi9PwFLXj-19" value="&amp;lt;&amp;lt;include&amp;gt;&amp;gt;" style="rounded=0;orthogonalLoop=1;jettySize=auto;html=1;exitX=1;exitY=0.5;exitDx=0;exitDy=0;entryX=0.027;entryY=0.303;entryDx=0;entryDy=0;entryPerimeter=0;dashed=1;dashPattern=8 8;" edge="1" parent="1" source="MMtwvZ5KxTtCi9PwFLXj-3" target="MMtwvZ5KxTtCi9PwFLXj-16">
          <mxGeometry relative="1" as="geometry" />
        </mxCell>
        <mxCell id="MMtwvZ5KxTtCi9PwFLXj-3" value="Melihat detail order" style="ellipse;whiteSpace=wrap;html=1;" vertex="1" parent="1">
          <mxGeometry x="310" y="210" width="120" height="60" as="geometry" />
        </mxCell>
        <mxCell id="MMtwvZ5KxTtCi9PwFLXj-18" value="&amp;lt;&amp;lt;include&amp;gt;&amp;gt;" style="rounded=0;orthogonalLoop=1;jettySize=auto;html=1;exitX=1;exitY=0.5;exitDx=0;exitDy=0;entryX=0.082;entryY=0.198;entryDx=0;entryDy=0;entryPerimeter=0;dashed=1;dashPattern=8 8;" edge="1" parent="1" source="MMtwvZ5KxTtCi9PwFLXj-4" target="MMtwvZ5KxTtCi9PwFLXj-16">
          <mxGeometry relative="1" as="geometry">
            <mxPoint x="650" y="420" as="targetPoint" />
          </mxGeometry>
        </mxCell>
        <mxCell id="MMtwvZ5KxTtCi9PwFLXj-4" value="Mengisi form reservasi" style="ellipse;whiteSpace=wrap;html=1;" vertex="1" parent="1">
          <mxGeometry x="310" y="130" width="120" height="60" as="geometry" />
        </mxCell>
        <mxCell id="MMtwvZ5KxTtCi9PwFLXj-30" style="rounded=0;orthogonalLoop=1;jettySize=auto;html=1;exitX=1;exitY=0.75;exitDx=0;exitDy=0;entryX=0;entryY=0.5;entryDx=0;entryDy=0;" edge="1" parent="1" source="MMtwvZ5KxTtCi9PwFLXj-5" target="MMtwvZ5KxTtCi9PwFLXj-6">
          <mxGeometry relative="1" as="geometry" />
        </mxCell>
        <mxCell id="MMtwvZ5KxTtCi9PwFLXj-31" style="rounded=0;orthogonalLoop=1;jettySize=auto;html=1;exitX=1;exitY=0.75;exitDx=0;exitDy=0;" edge="1" parent="1" source="MMtwvZ5KxTtCi9PwFLXj-5" target="MMtwvZ5KxTtCi9PwFLXj-8">
          <mxGeometry relative="1" as="geometry" />
        </mxCell>
        <mxCell id="MMtwvZ5KxTtCi9PwFLXj-32" style="rounded=0;orthogonalLoop=1;jettySize=auto;html=1;exitX=1;exitY=0.75;exitDx=0;exitDy=0;entryX=0;entryY=0.5;entryDx=0;entryDy=0;" edge="1" parent="1" source="MMtwvZ5KxTtCi9PwFLXj-5" target="MMtwvZ5KxTtCi9PwFLXj-7">
          <mxGeometry relative="1" as="geometry" />
        </mxCell>
        <mxCell id="MMtwvZ5KxTtCi9PwFLXj-5" value="" style="shape=actor;whiteSpace=wrap;html=1;" vertex="1" parent="1">
          <mxGeometry x="80" y="410" width="40" height="60" as="geometry" />
        </mxCell>
        <mxCell id="MMtwvZ5KxTtCi9PwFLXj-20" value="&amp;lt;&amp;lt;include&amp;gt;&amp;gt;" style="rounded=0;orthogonalLoop=1;jettySize=auto;html=1;entryX=-0.001;entryY=0.394;entryDx=0;entryDy=0;entryPerimeter=0;dashed=1;dashPattern=8 8;" edge="1" parent="1" source="MMtwvZ5KxTtCi9PwFLXj-6" target="MMtwvZ5KxTtCi9PwFLXj-16">
          <mxGeometry relative="1" as="geometry" />
        </mxCell>
        <mxCell id="MMtwvZ5KxTtCi9PwFLXj-6" value="Mengelola data reservasi" style="ellipse;whiteSpace=wrap;html=1;" vertex="1" parent="1">
          <mxGeometry x="310" y="330" width="120" height="60" as="geometry" />
        </mxCell>
        <mxCell id="MMtwvZ5KxTtCi9PwFLXj-22" value="&amp;lt;&amp;lt;include&amp;gt;&amp;gt;" style="rounded=0;orthogonalLoop=1;jettySize=auto;html=1;exitX=1;exitY=0.5;exitDx=0;exitDy=0;entryX=-0.005;entryY=0.605;entryDx=0;entryDy=0;entryPerimeter=0;dashed=1;dashPattern=8 8;" edge="1" parent="1" source="MMtwvZ5KxTtCi9PwFLXj-7" target="MMtwvZ5KxTtCi9PwFLXj-16">
          <mxGeometry relative="1" as="geometry">
            <mxPoint x="640" y="440" as="targetPoint" />
          </mxGeometry>
        </mxCell>
        <mxCell id="MMtwvZ5KxTtCi9PwFLXj-7" value="Melihat list order Pelanggan" style="ellipse;whiteSpace=wrap;html=1;" vertex="1" parent="1">
          <mxGeometry x="310" y="490" width="120" height="60" as="geometry" />
        </mxCell>
        <mxCell id="MMtwvZ5KxTtCi9PwFLXj-21" value="&amp;lt;&amp;lt;include&amp;gt;&amp;gt;" style="rounded=0;orthogonalLoop=1;jettySize=auto;html=1;exitX=1;exitY=0.5;exitDx=0;exitDy=0;entryX=-0.013;entryY=0.502;entryDx=0;entryDy=0;entryPerimeter=0;dashed=1;dashPattern=8 8;" edge="1" parent="1" source="MMtwvZ5KxTtCi9PwFLXj-8" target="MMtwvZ5KxTtCi9PwFLXj-16">
          <mxGeometry relative="1" as="geometry" />
        </mxCell>
        <mxCell id="MMtwvZ5KxTtCi9PwFLXj-8" value="Verifikasi Pembayaran" style="ellipse;whiteSpace=wrap;html=1;" vertex="1" parent="1">
          <mxGeometry x="310" y="410" width="120" height="60" as="geometry" />
        </mxCell>
        <mxCell id="MMtwvZ5KxTtCi9PwFLXj-9" value="Pelanggan" style="text;html=1;strokeColor=none;fillColor=none;align=center;verticalAlign=middle;whiteSpace=wrap;rounded=0;" vertex="1" parent="1">
          <mxGeometry x="70" y="190" width="60" height="30" as="geometry" />
        </mxCell>
        <mxCell id="MMtwvZ5KxTtCi9PwFLXj-10" value="Admin" style="text;html=1;strokeColor=none;fillColor=none;align=center;verticalAlign=middle;whiteSpace=wrap;rounded=0;" vertex="1" parent="1">
          <mxGeometry x="70" y="470" width="60" height="30" as="geometry" />
        </mxCell>
        <mxCell id="MMtwvZ5KxTtCi9PwFLXj-33" style="rounded=0;orthogonalLoop=1;jettySize=auto;html=1;exitX=1;exitY=0.75;exitDx=0;exitDy=0;entryX=0;entryY=0.5;entryDx=0;entryDy=0;" edge="1" parent="1" source="MMtwvZ5KxTtCi9PwFLXj-11" target="MMtwvZ5KxTtCi9PwFLXj-12">
          <mxGeometry relative="1" as="geometry" />
        </mxCell>
        <mxCell id="MMtwvZ5KxTtCi9PwFLXj-34" style="rounded=0;orthogonalLoop=1;jettySize=auto;html=1;exitX=1;exitY=0.75;exitDx=0;exitDy=0;entryX=0;entryY=0.5;entryDx=0;entryDy=0;" edge="1" parent="1" source="MMtwvZ5KxTtCi9PwFLXj-11" target="MMtwvZ5KxTtCi9PwFLXj-14">
          <mxGeometry relative="1" as="geometry" />
        </mxCell>
        <mxCell id="MMtwvZ5KxTtCi9PwFLXj-35" style="rounded=0;orthogonalLoop=1;jettySize=auto;html=1;exitX=1;exitY=0.75;exitDx=0;exitDy=0;entryX=0;entryY=0.5;entryDx=0;entryDy=0;" edge="1" parent="1" source="MMtwvZ5KxTtCi9PwFLXj-11" target="MMtwvZ5KxTtCi9PwFLXj-13">
          <mxGeometry relative="1" as="geometry" />
        </mxCell>
        <mxCell id="MMtwvZ5KxTtCi9PwFLXj-11" value="" style="shape=actor;whiteSpace=wrap;html=1;" vertex="1" parent="1">
          <mxGeometry x="80" y="690" width="40" height="60" as="geometry" />
        </mxCell>
        <mxCell id="MMtwvZ5KxTtCi9PwFLXj-23" value="&amp;lt;&amp;lt;include&amp;gt;&amp;gt;" style="rounded=0;orthogonalLoop=1;jettySize=auto;html=1;exitX=1;exitY=0.5;exitDx=0;exitDy=0;entryX=0.039;entryY=0.734;entryDx=0;entryDy=0;entryPerimeter=0;dashed=1;dashPattern=8 8;" edge="1" parent="1" source="MMtwvZ5KxTtCi9PwFLXj-12" target="MMtwvZ5KxTtCi9PwFLXj-16">
          <mxGeometry relative="1" as="geometry">
            <mxPoint x="650" y="460" as="targetPoint" />
          </mxGeometry>
        </mxCell>
        <mxCell id="MMtwvZ5KxTtCi9PwFLXj-12" value="Verifikasi data Pelanggan" style="ellipse;whiteSpace=wrap;html=1;" vertex="1" parent="1">
          <mxGeometry x="310" y="610" width="120" height="60" as="geometry" />
        </mxCell>
        <mxCell id="MMtwvZ5KxTtCi9PwFLXj-25" value="&amp;lt;&amp;lt;include&amp;gt;&amp;gt;" style="rounded=0;orthogonalLoop=1;jettySize=auto;html=1;exitX=1;exitY=0.5;exitDx=0;exitDy=0;entryX=0.161;entryY=0.896;entryDx=0;entryDy=0;entryPerimeter=0;dashed=1;dashPattern=8 8;" edge="1" parent="1" source="MMtwvZ5KxTtCi9PwFLXj-13" target="MMtwvZ5KxTtCi9PwFLXj-16">
          <mxGeometry relative="1" as="geometry">
            <mxPoint x="680" y="480" as="targetPoint" />
          </mxGeometry>
        </mxCell>
        <mxCell id="MMtwvZ5KxTtCi9PwFLXj-13" value="List Order" style="ellipse;whiteSpace=wrap;html=1;" vertex="1" parent="1">
          <mxGeometry x="310" y="770" width="120" height="60" as="geometry" />
        </mxCell>
        <mxCell id="MMtwvZ5KxTtCi9PwFLXj-24" value="&amp;lt;&amp;lt;include&amp;gt;&amp;gt;" style="rounded=0;orthogonalLoop=1;jettySize=auto;html=1;exitX=1;exitY=0.5;exitDx=0;exitDy=0;entryX=0.094;entryY=0.823;entryDx=0;entryDy=0;entryPerimeter=0;dashed=1;dashPattern=8 8;" edge="1" parent="1" source="MMtwvZ5KxTtCi9PwFLXj-14" target="MMtwvZ5KxTtCi9PwFLXj-16">
          <mxGeometry relative="1" as="geometry">
            <mxPoint x="670" y="470" as="targetPoint" />
          </mxGeometry>
        </mxCell>
        <mxCell id="MMtwvZ5KxTtCi9PwFLXj-14" value="Mengelola status Booking" style="ellipse;whiteSpace=wrap;html=1;" vertex="1" parent="1">
          <mxGeometry x="310" y="690" width="120" height="60" as="geometry" />
        </mxCell>
        <mxCell id="MMtwvZ5KxTtCi9PwFLXj-15" value="Barber" style="text;html=1;strokeColor=none;fillColor=none;align=center;verticalAlign=middle;whiteSpace=wrap;rounded=0;" vertex="1" parent="1">
          <mxGeometry x="70" y="750" width="60" height="30" as="geometry" />
        </mxCell>
        <mxCell id="MMtwvZ5KxTtCi9PwFLXj-16" value="Login" style="ellipse;whiteSpace=wrap;html=1;" vertex="1" parent="1">
          <mxGeometry x="640" y="410" width="120" height="60" as="geometry" />
        </mxCell>
      </root>
    </mxGraphModel>
  </diagram>
</mxfile>
